<svg width="181" height="40" viewBox="0 0 181 40" fill="none" xmlns="http://www.w3.org/2000/svg">
<path d="M180.974 0.362464L175.378 1.86251L179.475 5.9588L180.974 0.362464ZM6.42981e-06 0.724931C0.23682 0.951595 0.47646 1.17894 0.718899 1.4069L1.40631 0.675837C1.16601 0.449891 0.928523 0.224593 0.693868 -3.97751e-06L6.42981e-06 0.724931ZM2.20694 2.7817C2.70159 3.23088 3.20671 3.68202 3.72211 4.1347L4.38432 3.38074C3.87304 2.93167 3.37205 2.48423 2.88154 2.03881L2.20694 2.7817ZM5.25058 5.45584C5.7624 5.89128 6.28347 6.32778 6.81361 6.76498L7.45206 5.9908C6.92585 5.55684 6.40872 5.12363 5.90082 4.69153L5.25058 5.45584ZM8.37517 8.03358C8.90353 8.45647 9.4402 8.87969 9.98503 9.30291L10.6006 8.51044C10.0596 8.09019 9.52677 7.66998 9.00221 7.25014L8.37517 8.03358ZM11.575 10.5204C12.1125 10.9261 12.6573 11.3314 13.2093 11.7363L13.8027 10.9271C13.2544 10.525 12.7133 10.1223 12.1796 9.71948L11.575 10.5204ZM14.846 12.9195C15.3911 13.3081 15.9429 13.6959 16.5011 14.0827L17.0726 13.2578C16.5181 12.8736 15.9699 12.4884 15.4284 12.1024L14.846 12.9195ZM18.1843 15.2323C18.7368 15.6043 19.2952 15.9751 19.8595 16.3444L20.409 15.5048C19.8484 15.1378 19.2936 14.7695 18.7448 14.3999L18.1843 15.2323ZM21.5697 17.448C22.1348 17.8074 22.7055 18.1652 23.2815 18.5212L23.809 17.6675C23.2367 17.3138 22.6697 16.9583 22.1083 16.6012L21.5697 17.448ZM25.0081 19.5728C25.5884 19.9211 26.1739 20.2674 26.7645 20.6115L27.2697 19.7445C26.6829 19.4026 26.1011 19.0585 25.5246 18.7124L25.0081 19.5728ZM28.5078 21.6124C29.0937 21.9437 29.6845 22.2728 30.2799 22.5995L30.7625 21.7197C30.1709 21.3951 29.584 21.0682 29.0018 20.7389L28.5078 21.6124ZM32.066 23.5641C32.6572 23.8785 33.2529 24.1903 33.8528 24.4994L34.3124 23.6073C33.7163 23.3003 33.1245 22.9905 32.5371 22.6781L32.066 23.5641ZM35.6657 25.4182C36.267 25.718 36.8725 26.015 37.482 26.3089L37.9179 25.405C37.3123 25.113 36.7108 24.818 36.1134 24.5201L35.6657 25.4182ZM39.3083 27.1747C39.921 27.4602 40.5377 27.7425 41.1581 28.0215L41.5697 27.1063C40.9533 26.8292 40.3408 26.5487 39.7321 26.2651L39.3083 27.1747ZM43.0048 28.837C43.622 29.1046 44.2428 29.3688 44.8671 29.6295L45.2537 28.7035C44.6336 28.4446 44.017 28.1822 43.404 27.9164L43.0048 28.837ZM46.7507 30.4007C47.3729 30.6503 47.9984 30.8964 48.6272 31.1388L48.9881 30.2024C48.3636 29.9618 47.7424 29.7174 47.1245 29.4694L46.7507 30.4007ZM50.5224 31.8539C51.1568 32.0882 51.7944 32.3186 52.4352 32.5449L52.7694 31.5987C52.1331 31.374 51.5 31.1452 50.87 30.9125L50.5224 31.8539ZM54.3421 33.2032C54.9807 33.4186 55.6224 33.6298 56.267 33.8368L56.5738 32.8814C55.9339 32.6759 55.2968 32.4662 54.6627 32.2523L54.3421 33.2032ZM58.2064 34.444C58.8487 34.6399 59.4938 34.8314 60.1416 35.0186L60.4201 34.0545C59.7771 33.8688 59.1367 33.6786 58.4991 33.4841L58.2064 34.444ZM62.0932 35.5665C62.7453 35.7443 63.4 35.9175 64.0572 36.086L64.3064 35.114C63.6541 34.9468 63.0044 34.7748 62.3572 34.5984L62.0932 35.5665ZM66.0173 36.5725C66.6732 36.73 67.3315 36.8827 67.9923 37.0305L68.2113 36.0512C67.5557 35.9045 66.9024 35.753 66.2516 35.5968L66.0173 36.5725ZM69.9783 37.4583C70.6364 37.5946 71.2968 37.726 71.9595 37.8523L72.1474 36.8665C71.49 36.7412 70.8348 36.6109 70.1819 36.4756L69.9783 37.4583ZM73.954 38.2159C74.6202 38.3318 75.2886 38.4425 75.9591 38.5479L76.1149 37.5565C75.4498 37.452 74.7869 37.3422 74.126 37.2272L73.954 38.2159ZM77.9569 38.8451C78.6249 38.9388 79.2948 39.0273 79.9667 39.1102L80.0896 38.1143C79.4233 38.032 78.7589 37.9443 78.0964 37.8513L77.9569 38.8451ZM81.9873 39.3423C82.6554 39.4133 83.3252 39.4788 83.9969 39.5387L84.086 38.5392C83.4201 38.4798 82.7558 38.4148 82.0934 38.3444L81.9873 39.3423ZM86.0172 39.7014C86.6923 39.7499 87.3692 39.7927 88.0478 39.8296L88.1023 38.8276C87.4296 38.791 86.7585 38.7486 86.0891 38.7005L86.0172 39.7014ZM90.0653 39.9218C90.7388 39.9467 91.4139 39.9657 92.0905 39.9788L92.1098 38.9755C91.4392 38.9625 90.77 38.9437 90.1023 38.919L90.0653 39.9218ZM94.1247 39.9999C94.7972 40.0008 95.4711 39.9958 96.1463 39.9848L96.1298 38.9814C95.4606 38.9924 94.7927 38.9974 94.1261 38.9964L94.1247 39.9999ZM98.1702 39.9333C98.8462 39.91 99.5234 39.8806 100.202 39.8448L100.149 38.8427C99.4768 38.8781 98.8056 38.9073 98.1357 38.9304L98.1702 39.9333ZM102.223 39.7199C102.894 39.6722 103.566 39.6184 104.239 39.5583L104.15 38.5588C103.483 38.6184 102.817 38.6717 102.152 38.7189L102.223 39.7199ZM106.261 39.3587C106.933 39.2862 107.605 39.2074 108.278 39.122L108.152 38.1265C107.485 38.2111 106.819 38.2892 106.154 38.361L106.261 39.3587ZM110.278 38.8497C110.946 38.7526 111.615 38.6489 112.284 38.5388L112.121 37.5486C111.458 37.6578 110.796 37.7604 110.134 37.8567L110.278 38.8497ZM114.293 38.189C114.951 38.068 115.611 37.9407 116.27 37.8068L116.071 36.8233C115.417 36.956 114.764 37.0822 114.112 37.2021L114.293 38.189ZM118.252 37.3855C118.914 37.2385 119.576 37.0849 120.238 36.9247L120.002 35.9493C119.346 36.1081 118.69 36.2603 118.035 36.4059L118.252 37.3855ZM122.198 36.4316C122.847 36.2618 123.497 36.0855 124.148 35.9025L123.876 34.9365C123.231 35.1178 122.587 35.2925 121.944 35.4607L122.198 36.4316ZM126.101 35.3339C126.748 35.139 127.395 34.9375 128.044 34.7293L127.737 33.7739C127.094 33.9802 126.453 34.1799 125.811 34.373L126.101 35.3339ZM129.954 34.0964C130.591 33.8789 131.229 33.6549 131.867 33.4243L131.526 32.4806C130.893 32.7092 130.262 32.9312 129.63 33.1467L129.954 34.0964ZM133.782 32.7124C134.407 32.4734 135.033 32.228 135.658 31.9761L135.284 31.0452C134.663 31.2949 134.043 31.5381 133.424 31.775L133.782 32.7124ZM137.524 31.2062C138.146 30.943 138.768 30.6734 139.39 30.3972L138.983 29.48C138.366 29.7538 137.749 30.0211 137.133 30.282L137.524 31.2062ZM141.25 29.5522C141.854 29.2716 142.458 28.9847 143.061 28.6914L142.623 27.7887C142.024 28.0795 141.426 28.364 140.827 28.6423L141.25 29.5522ZM144.873 27.7925C145.477 27.4864 146.082 27.174 146.686 26.855L146.217 25.9676C145.618 26.2839 145.019 26.5938 144.42 26.8973L144.873 27.7925ZM148.473 25.8922C149.057 25.5714 149.641 25.2445 150.225 24.9114L149.728 24.0398C149.149 24.3702 148.569 24.6945 147.99 25.0126L148.473 25.8922ZM151.976 23.8935C152.56 23.5479 153.144 23.1961 153.727 22.8379L153.203 21.9827C152.624 22.338 152.044 22.6871 151.465 23.0299L151.976 23.8935ZM155.443 21.7665C156.005 21.4093 156.567 21.0461 157.129 20.6769L156.578 19.8382C156.021 20.2046 155.463 20.565 154.905 20.9195L155.443 21.7665ZM158.815 19.5514C159.376 19.1701 159.938 18.7829 160.499 18.3895L159.923 17.5678C159.366 17.9583 158.808 18.3427 158.251 18.7211L158.815 19.5514ZM162.146 17.2166C162.685 16.8268 163.224 16.4314 163.763 16.0302L163.163 15.2255C162.628 15.6238 162.093 16.0164 161.558 16.4034L162.146 17.2166ZM165.378 14.8093C165.916 14.3966 166.453 13.978 166.991 13.5536L166.369 12.7661C165.835 13.1876 165.301 13.6033 164.767 14.0132L165.378 14.8093ZM168.577 12.2832C169.092 11.8651 169.606 11.4416 170.121 11.0125L169.478 10.242C168.967 10.6682 168.456 11.089 167.944 11.5043L168.577 12.2832ZM171.662 9.709C172.176 9.26898 172.689 8.82344 173.202 8.37232L172.539 7.61885C172.03 8.06711 171.52 8.50981 171.009 8.94699L171.662 9.709ZM174.737 7.00447C175.227 6.56209 175.717 6.11458 176.206 5.66187L175.524 4.92528C175.038 5.37521 174.551 5.81998 174.064 6.2596L174.737 7.00447ZM177.673 4.28818C178.161 3.82507 178.649 3.35674 179.137 2.88315L178.438 2.1632C177.953 2.63401 177.468 3.09956 176.982 3.55989L177.673 4.28818Z" fill="#7A7A7A"/>
</svg>
