<svg width="12" height="12" viewBox="0 0 12 12" fill="none" xmlns="http://www.w3.org/2000/svg">
<g clip-path="url(#clip0_1_69)">
<path d="M8.809 2.984L9.5355 2.2575L10.2425 2.9645L9.516 3.691C10.2339 4.58958 10.5805 5.72894 10.4845 6.87507C10.3886 8.02119 9.8575 9.0871 9.00024 9.85386C8.14299 10.6206 7.02468 11.03 5.87499 10.998C4.7253 10.966 3.6315 10.495 2.81823 9.68176C2.00497 8.8685 1.53396 7.7747 1.50196 6.62501C1.46995 5.47532 1.87937 4.35701 2.64614 3.49976C3.4129 2.6425 4.4788 2.11138 5.62493 2.01546C6.77106 1.91954 7.91042 2.26612 8.809 2.984ZM6 10C6.45963 10 6.91475 9.90947 7.33939 9.73358C7.76403 9.55769 8.14987 9.29988 8.47487 8.97487C8.79988 8.64987 9.05769 8.26403 9.23358 7.83939C9.40947 7.41475 9.5 6.95963 9.5 6.5C9.5 6.04037 9.40947 5.58525 9.23358 5.16061C9.05769 4.73597 8.79988 4.35013 8.47487 4.02513C8.14987 3.70012 7.76403 3.44231 7.33939 3.26642C6.91475 3.09053 6.45963 3 6 3C5.07174 3 4.1815 3.36875 3.52513 4.02513C2.86875 4.6815 2.5 5.57174 2.5 6.5C2.5 7.42826 2.86875 8.3185 3.52513 8.97487C4.1815 9.63125 5.07174 10 6 10ZM5.5 4H6.5V7H5.5V4ZM4 0.5H8V1.5H4V0.5Z" fill="#0C1230"/>
</g>
<defs>
<clipPath id="clip0_1_69">
<rect width="12" height="12" fill="white"/>
</clipPath>
</defs>
</svg>
